<?xml version="1.0" encoding="UTF-8" standalone="no"?>
<!DOCTYPE svg PUBLIC "-//W3C//DTD SVG 1.1//EN" "http://www.w3.org/Graphics/SVG/1.1/DTD/svg11.dtd">
<svg xmlns="http://www.w3.org/2000/svg" xmlns:xlink="http://www.w3.org/1999/xlink" version="1.1" width="612pt" height="792pt" viewBox="0 0 612 792">
<g enable-background="new">
<path stroke-width="2" stroke-linecap="butt" stroke-miterlimit="10" stroke-linejoin="miter" fill="none" stroke="#0000ff" d="M 100 125.50244 L 260.36378 125.50244 "/>
<symbol id="font_0_19">
<path d="M 0 0 L 0 .04296875 C .030924479 .043619794 .049804689 .044596357 .056640626 .045898439 C .06347656 .04720052 .06852213 .048990888 .071777347 .05126953 C .075032558 .0538737 .077311199 .057454427 .07861328 .06201172 C .08186849 .071777347 .08365885 .09440104 .083984378 .12988281 L .0859375 .22705078 L .0859375 .4555664 L .083984378 .5517578 C .08365885 .5878906 .08186849 .61083987 .07861328 .62060549 C .077311199 .6251628 .075032558 .62858077 .071777347 .6308594 C .068847659 .63346359 .063964847 .6354167 .057128908 .63671877 C .05029297 .6383464 .03125 .63948568 0 .6401367 L 0 .68310549 C .053385419 .68115237 .10970052 .6801758 .16894531 .6801758 C .2220052 .6801758 .26904298 .68115237 .3100586 .68310549 L .3100586 .6401367 C .27522788 .63883468 .25472007 .6373698 .24853516 .6357422 C .24235027 .6344401 .23795574 .63216146 .23535156 .62890627 C .23274739 .62565109 .23079427 .6142578 .22949219 .59472659 C .2265625 .56152346 .22509766 .5136719 .22509766 .45117188 L .22509766 .39501954 C .24853516 .3930664 .2976888 .39208985 .3725586 .39208985 C .46695964 .39208985 .52522787 .3930664 .5473633 .39501954 L .5473633 .45117188 C .5473633 .5016276 .5470378 .5340169 .5463867 .54833987 C .54378256 .5916341 .5418294 .61604818 .54052737 .62158206 C .5395508 .6254883 .53792318 .62841799 .53564456 .6303711 C .5336914 .6326497 .52978518 .6344401 .5239258 .6357422 C .5183919 .6373698 .49804688 .63883468 .46289063 .6401367 L .46289063 .68310549 C .50390627 .68115237 .55094406 .6801758 .6040039 .6801758 C .6632487 .6801758 .7195638 .68115237 .7729492 .68310549 L .7729492 .6401367 C .7420247 .63948568 .72314456 .6385091 .7163086 .63720706 C .70947268 .63590499 .70442709 .63395187 .7011719 .63134768 C .6979167 .62906906 .695638 .62565109 .69433596 .62109377 C .69108077 .6110026 .68929037 .5883789 .68896487 .55322268 L .6870117 .4555664 L .6870117 .22705078 L .68896487 .13134766 C .68929037 .09488932 .69091799 .0719401 .69384768 .0625 C .6954753 .057942708 .6977539 .05436198 .7006836 .051757814 C .7039388 .049153646 .7089844 .04720052 .7158203 .045898439 C .72265627 .044596357 .7416992 .043619794 .7729492 .04296875 L .7729492 0 C .7195638 .001953125 .6632487 .0029296876 .6040039 .0029296876 C .55094406 .0029296876 .50390627 .001953125 .46289063 0 L .46289063 .04296875 C .49772135 .044270833 .5182292 .045572919 .52441409 .046875 C .53059896 .048502607 .53499349 .05094401 .53759768 .05419922 C .54020187 .057454427 .54215499 .068847659 .54345706 .088378909 C .5460612 .12158203 .5473633 .1694336 .5473633 .2319336 L .5473633 .33398438 C .5310872 .33626304 .48372398 .33740235 .40527345 .33740235 C .33007813 .33740235 .2799479 .3370768 .2548828 .33642579 C .24479167 .33610026 .23486328 .33528648 .22509766 .33398438 L .22509766 .2319336 C .22509766 .18115235 .22558594 .14876302 .2265625 .13476563 C .22916667 .09147135 .2311198 .06689453 .23242188 .061035158 C .23339844 .057454427 .23486328 .05452474 .2368164 .052246095 C .23909505 .05029297 .2430013 .048502607 .24853516 .046875 C .25439454 .045572919 .27490235 .044270833 .3100586 .04296875 L .3100586 0 C .26904298 .001953125 .2220052 .0029296876 .16894531 .0029296876 C .10970052 .0029296876 .053385419 .001953125 0 0 Z "/>
</symbol>
<symbol id="font_0_4">
<path d="M .40771485 .092285159 L .38623048 .044433595 C .35953776 .028157553 .33203126 .016113282 .30371095 .008300781 C .2825521 .002766927 .25846354 0 .23144531 0 C .19921875 0 .17073567 .0037434896 .1459961 .011230469 C .12158203 .018717448 .10058594 .028971354 .08300781 .041992189 C .06575521 .05501302 .05045573 .07096354 .037109376 .08984375 C .024088541 .10872396 .0146484379 .13053386 .0087890629 .15527344 C .0029296876 .18001302 0 .20703125 0 .23632813 C 0 .27897135 .0056966149 .31705729 .017089844 .35058595 C .024902344 .37402345 .034016927 .39095054 .044433595 .4013672 C .05094401 .4078776 .067871097 .42008464 .095214847 .43798829 C .122558597 .45589195 .14241536 .4676107 .15478516 .47314454 C .17757161 .4832357 .20442708 .48828126 .23535156 .48828126 C .27897135 .48828126 .31477867 .47916667 .34277345 .4609375 C .37076823 .44270835 .39046226 .4194336 .40185548 .39111329 C .41357423 .36279298 .4194336 .32845054 .4194336 .28808595 C .4194336 .27897135 .41910807 .27018229 .41845704 .26171876 C .410319 .2591146 .39794923 .2561849 .38134767 .2529297 C .35921226 .24869792 .34423829 .24641927 .33642579 .24609375 C .31201173 .24414063 .27978517 .2430013 .2397461 .24267578 C .19970703 .24235027 .17757161 .24202474 .17333985 .24169922 C .16910808 .2413737 .16438802 .24121094 .15917969 .24121094 L .12695313 .24121094 C .1295573 .18977864 .14550781 .14908855 .17480469 .119140628 C .20410156 .08951823 .24023438 .07470703 .28320313 .07470703 C .3017578 .07470703 .31884767 .076660159 .33447267 .080566409 C .35009767 .08479818 .37060548 .09326172 .3959961 .10595703 L .40771485 .092285159 M .2915039 .2944336 C .292806 .3461914 .28580729 .38248698 .2705078 .4033203 C .2548828 .42382813 .23470052 .43408204 .20996094 .43408204 C .18457031 .43408204 .16357422 .42333985 .14697266 .40185548 C .13004558 .38004557 .12223307 .34423829 .123535159 .2944336 C .14274089 .2915039 .17480469 .29003907 .21972656 .29003907 C .24837239 .29003907 .2722982 .2915039 .2915039 .2944336 Z "/>
</symbol>
<symbol id="font_0_1a">
<path d="M .28027345 .037597658 L .28027345 0 C .24348958 .0016276041 .20247396 .0024414063 .15722656 .0024414063 C .106770839 .0024414063 .05436198 .0016276041 0 0 L 0 .037597658 C .025390625 .037597658 .04296875 .03938802 .052734376 .04296875 C .057291669 .044596357 .060709638 .04736328 .06298828 .05126953 C .06624349 .057454427 .06803385 .06917318 .068359378 .08642578 L .0703125 .12988281 C .07063802 .13899739 .07080078 .1538086 .07080078 .1743164 L .07080078 .23828125 C .07080078 .2672526 .06982422 .30240885 .067871097 .34375 C .06689453 .36458335 .06542969 .3763021 .06347656 .37890626 C .061848958 .38183595 .05908203 .3839518 .05517578 .3852539 C .048990888 .38753257 .030598959 .38916017 0 .39013673 L 0 .42773438 C .059244794 .43782554 .09814453 .4453125 .11669922 .4501953 C .1352539 .45507813 .15625 .46289063 .1796875 .4736328 L .1928711 .46777345 L .19189453 .36914063 C .21305339 .39095054 .22932942 .40901695 .24072266 .42333985 C .25764976 .44352214 .27034507 .45638023 .2788086 .46191407 C .29052735 .46972657 .3059896 .4736328 .3251953 .4736328 C .3372396 .4736328 .34814454 .4716797 .35791017 .46777345 L .35498048 .3984375 C .3540039 .3606771 .3531901 .33902995 .35253907 .3334961 L .33203126 .32714845 C .32389323 .33789063 .31608073 .3453776 .30859376 .34960938 C .29654948 .3564453 .28336589 .35986329 .26904298 .35986329 C .24983724 .35986329 .23323567 .35384117 .21923828 .34179688 C .2055664 .33007813 .19742839 .31803385 .19482422 .30566407 C .19352214 .2985026 .1928711 .2709961 .1928711 .22314453 L .1928711 .1743164 L .19384766 .107910159 C .19417317 .082845058 .19498699 .06738281 .19628906 .061523439 C .19791667 .055989583 .20133464 .05159505 .20654297 .048339845 C .2117513 .045084638 .22298177 .04280599 .24023438 .041503908 L .28027345 .037597658 Z "/>
</symbol>
<symbol id="font_0_5">
<path d="M 0 0 Z "/>
</symbol>
<symbol id="font_0_9">
<path d="M .13378906 .70703127 C .15462239 .70703127 .17220052 .69970706 .18652344 .6850586 C .20117188 .67041018 .2084961 .65283206 .2084961 .6323242 C .2084961 .6114909 .20117188 .59375 .18652344 .57910159 C .17220052 .5644531 .15462239 .5571289 .13378906 .5571289 C .11328125 .5571289 .095703128 .5644531 .08105469 .57910159 C .06640625 .59375 .05908203 .6114909 .05908203 .6323242 C .05908203 .65283206 .06624349 .67041018 .080566409 .6850586 C .095214847 .69970706 .11295573 .70703127 .13378906 .70703127 M 0 0 L 0 .036132814 C .036458333 .03873698 .057291669 .041503908 .0625 .044433595 C .067708339 .0476888 .07096354 .053548177 .072265628 .06201172 C .075520839 .07991537 .07714844 .12597656 .07714844 .20019531 C .07714844 .30208335 .075683597 .36002604 .072753909 .37402345 C .07145182 .38053385 .06933594 .38476563 .06640625 .38671876 C .059895833 .39095054 .037760419 .39322917 0 .3935547 L 0 .43066407 C .049153646 .4358724 .08626302 .44140626 .111328128 .44726563 C .13639324 .453125 .16373699 .4620768 .19335938 .4741211 L .20507813 .46777345 C .20117188 .4169922 .19921875 .36930339 .19921875 .32470704 L .19921875 .1586914 C .19921875 .10205078 .20052083 .06852213 .203125 .05810547 C .20442708 .052246095 .20703125 .048339845 .2109375 .04638672 C .21972656 .04215495 .24104817 .03938802 .27490235 .038085939 L .27490235 0 C .22867839 .0013020834 .17838542 .001953125 .12402344 .001953125 C .07714844 .001953125 .035807294 .0013020834 0 0 Z "/>
</symbol>
<symbol id="font_0_17">
<path d="M .0078125 .17089844 L .046875 .17089844 C .048502607 .13444011 .050130208 .11149088 .051757814 .10205078 C .06640625 .08414713 .08251953 .07080078 .100097659 .06201172 C .11767578 .053548177 .13785808 .049316408 .16064453 .049316408 C .19124349 .049316408 .21468099 .056640626 .23095703 .07128906 C .24723308 .0859375 .2553711 .10367838 .2553711 .12451172 C .2553711 .1381836 .25260417 .14941406 .24707031 .15820313 C .24186199 .1673177 .2311198 .17561849 .21484375 .18310547 C .20214844 .18766277 .17773438 .19384766 .14160156 .20166016 C .10579427 .20947266 .07861328 .21809896 .060058595 .22753906 C .041503908 .23697917 .027018229 .25097657 .016601563 .26953126 C .006184896 .28841148 .0009765625 .31038413 .0009765625 .33544923 C .0009765625 .3803711 .017903647 .41764323 .051757814 .44726563 C .08561198 .47721354 .13427735 .4921875 .1977539 .4921875 C .2241211 .4921875 .24837239 .48990885 .2705078 .48535157 C .29264323 .48079429 .31266276 .47395835 .3305664 .46484376 L .33203126 .45996095 C .33007813 .44856773 .32861329 .43701173 .32763673 .42529298 C .32666017 .41357423 .3251953 .38590495 .3232422 .34228517 L .28564454 .34277345 C .285319 .34635417 .28483073 .3523763 .2841797 .36083985 C .28320313 .37548829 .28125 .38964845 .2783203 .4033203 C .26822917 .41634117 .25569663 .42610679 .24072266 .4326172 C .22607422 .4391276 .20882161 .4423828 .18896485 .4423828 C .16129558 .4423828 .1398112 .4361979 .12451172 .42382813 C .10953776 .41145835 .10205078 .39664714 .10205078 .37939454 C .10205078 .3618164 .10546875 .34879557 .11230469 .34033204 C .119140628 .3318685 .12923177 .32552085 .14257813 .32128907 C .15592449 .31705729 .1805013 .31152345 .2163086 .3046875 C .2524414 .2981771 .27669273 .29264323 .2890625 .28808595 C .30696617 .28125 .32128907 .2726237 .33203126 .26220704 C .34277345 .25179038 .35091148 .23876953 .3564453 .22314453 C .3623047 .20784505 .36523438 .19091797 .36523438 .17236328 C .36523438 .12386068 .34635417 .08300781 .30859376 .049804689 C .27115885 .016601563 .21842449 0 .15039063 0 C .12760417 0 .10546875 .0021158856 .083984378 .0063476564 C .0625 .010253906 .036295576 .017578125 .0053710939 .028320313 L 0 .03564453 C .0026041668 .060709638 .004231771 .07845052 .0048828127 .08886719 L .0078125 .17089844 Z "/>
</symbol>
<symbol id="font_0_b">
<path d="M .43798829 .049316408 L .43798829 .0126953129 C .40055339 .014322917 .36735026 .015136719 .3383789 .015136719 C .31103517 .015136719 .28450523 .014322917 .25878907 .0126953129 L .25439454 .018066407 L .25878907 .08203125 C .24707031 .07454427 .21256511 .048828126 .15527344 .0048828127 C .140625 .0016276041 .12662761 0 .11328125 0 C .07779948 0 .04996745 .010416667 .029785157 .03125 C .009928386 .052083333 0 .08203125 0 .12109375 C 0 .14746094 .0043945314 .16910808 .013183594 .18603516 C .022298178 .20296224 .031901044 .21533203 .041992189 .22314453 C .052408857 .23128255 .068359378 .23909505 .08984375 .24658203 C .14127605 .2648112 .19759114 .27913413 .25878907 .28955079 C .2594401 .32828776 .25146485 .3577474 .23486328 .3779297 C .2179362 .39811198 .19222005 .40820313 .15771485 .40820313 C .14371746 .40820313 .1303711 .40641276 .11767578 .40283204 C .11214193 .40120445 .10563151 .39794923 .09814453 .3930664 L .07763672 .34375 L .044433595 .35107423 L .04736328 .4140625 C .07145182 .43033854 .09440104 .4444987 .11621094 .45654298 C .13802083 .46858726 .15332031 .47591148 .16210938 .47851563 C .17415364 .48209635 .19108074 .48388673 .21289063 .48388673 C .24837239 .48388673 .2775065 .47867839 .30029298 .46826173 C .32340495 .45817057 .34033204 .4461263 .35107423 .4321289 C .36214195 .4181315 .3696289 .40315757 .37353517 .38720704 C .37776695 .3712565 .3798828 .35107423 .3798828 .32666017 C .3798828 .3162435 .379069 .2890625 .3774414 .24511719 C .37646485 .21582031 .37597657 .19189453 .37597657 .17333985 C .37597657 .11539713 .37760417 .08024088 .38085938 .067871097 C .38216148 .06201172 .38476563 .05810547 .38867188 .056152345 C .39388023 .053548177 .410319 .05126953 .43798829 .049316408 M .25878907 .24853516 C .2311198 .24267578 .20572917 .23551433 .18261719 .22705078 C .15983074 .21891277 .14404297 .20865886 .1352539 .19628906 C .12646485 .1842448 .12207031 .16894531 .12207031 .15039063 C .12207031 .1295573 .12727864 .11344401 .13769531 .10205078 C .1484375 .090657558 .16243489 .08496094 .1796875 .08496094 C .19433594 .08496094 .20898438 .08919271 .22363281 .09765625 C .23860677 .10611979 .25032554 .11686198 .25878907 .12988281 L .25878907 .24853516 Z "/>
</symbol>
<symbol id="font_0_22">
<path d="M .27685548 .0390625 L .27685548 0 C .23616536 .0026041668 .19368489 .00390625 .14941406 .00390625 C .10514323 .00390625 .055338544 .0026041668 0 0 L 0 .03857422 C .030924479 .03955078 .049641927 .040852865 .056152345 .04248047 C .061035158 .04378255 .06461588 .045572919 .06689453 .047851564 C .069498699 .05045573 .07128906 .05436198 .072265628 .059570314 C .07454427 .06933594 .076171878 .100097659 .07714844 .15185547 C .078125 .20361328 .07861328 .24951172 .07861328 .28955079 L .07861328 .4506836 C .07861328 .50179037 .07747396 .5485026 .07519531 .5908203 C .07389323 .61360678 .072265628 .6271159 .0703125 .63134768 C .069010417 .6336263 .067220058 .6354167 .064941409 .63671877 C .061035158 .63932296 .05485026 .64127609 .04638672 .6425781 C .041503908 .6432292 .026855469 .64404299 .0024414063 .64501956 L .0024414063 .68115237 C .04280599 .6853841 .075032558 .6899414 .099121097 .6948242 C .12320963 .70003256 .15559896 .7089844 .19628906 .7216797 L .20654297 .7158203 L .20263672 .6171875 C .20100911 .56184896 .20003255 .49397788 .19970703 .41357423 L .19970703 .28857423 C .19970703 .2413737 .20003255 .20605469 .2006836 .18261719 C .20198567 .12434896 .20296224 .089029949 .20361328 .076660159 C .20426433 .06461588 .20540364 .056966146 .20703125 .053710939 C .20800781 .051432294 .20963542 .049479169 .21191406 .047851564 C .21484375 .045572919 .21988933 .04378255 .22705078 .04248047 C .22998047 .041829427 .24658203 .040690107 .27685548 .0390625 Z "/>
</symbol>
<symbol id="font_0_c">
<path d="M .56152346 .037597658 L .56152346 0 C .5172526 .0022786458 .48111979 .0034179688 .453125 .0034179688 C .42089845 .0034179688 .39290367 .0022786458 .36914063 0 L .36035157 .0087890629 C .3610026 .015625 .3631185 .04378255 .36669923 .09326172 L .36914063 .17333985 L .36914063 .21191406 C .36914063 .26888023 .36686198 .3063151 .3623047 .32421876 C .3580729 .3421224 .3491211 .3564453 .33544923 .3671875 C .32177735 .37825523 .3035482 .38378907 .28076173 .38378907 C .25797526 .38378907 .23909505 .37825523 .2241211 .3671875 C .20914714 .3564453 .19970703 .34554038 .19580078 .33447267 C .19352214 .32796226 .19254558 .30192057 .1928711 .25634767 L .1928711 .1743164 C .1928711 .15055339 .19352214 .12141927 .19482422 .08691406 C .19514974 .071614589 .19645183 .061523439 .19873047 .056640626 C .20035808 .053059896 .20247396 .05045573 .20507813 .048828126 C .20898438 .046223958 .21663411 .04378255 .22802735 .041503908 C .2319336 .040852865 .24560547 .03955078 .26904298 .037597658 L .26904298 0 C .2335612 .0013020834 .19010417 .001953125 .13867188 .001953125 C .07910156 .001953125 .032877607 .0013020834 0 0 L 0 .037597658 C .025390625 .037597658 .04296875 .03938802 .052734376 .04296875 C .057291669 .044596357 .060709638 .04736328 .06298828 .05126953 C .06624349 .057454427 .06803385 .06917318 .068359378 .08642578 L .0703125 .12988281 C .07063802 .13899739 .07080078 .1538086 .07080078 .1743164 L .07080078 .23828125 C .07080078 .2672526 .06982422 .30240885 .067871097 .34375 C .06689453 .36458335 .06542969 .3763021 .06347656 .37890626 C .061848958 .38183595 .05908203 .3839518 .05517578 .3852539 C .048990888 .38753257 .030598959 .38916017 0 .39013673 L 0 .42773438 C .059244794 .43782554 .09814453 .4453125 .11669922 .4501953 C .1352539 .45507813 .15625 .46289063 .1796875 .4736328 L .1928711 .46777345 L .1928711 .38916017 L .28173829 .46044923 C .29248048 .464681 .30143229 .4674479 .30859376 .46875 C .31608073 .4703776 .32633464 .4711914 .33935548 .4711914 C .3741862 .4711914 .40022788 .46728517 .41748048 .45947267 C .4350586 .45166017 .44986979 .44059245 .46191407 .42626954 C .47395835 .41227214 .48242188 .39746095 .4873047 .38183595 C .4921875 .36653648 .4946289 .3424479 .4946289 .3095703 C .4946289 .27246095 .49430339 .24886067 .49365235 .23876953 C .4933268 .23486328 .49316407 .23014324 .49316407 .22460938 L .49365235 .1743164 C .49397788 .11930338 .49479167 .08528646 .49609376 .072265628 C .49772135 .059244794 .50065109 .05078125 .5048828 .046875 C .5094401 .04329427 .51920577 .041015626 .5341797 .040039064 C .53971359 .039713544 .5488281 .03889974 .56152346 .037597658 Z "/>
</symbol>
<symbol id="font_0_23">
<path d="M .56689456 .0390625 L .56689456 0 C .55322268 .0009765625 .52473959 .0014648438 .4814453 .0014648438 C .4361979 .0014648438 .4078776 .0009765625 .39648438 0 C .37955729 .028645834 .3450521 .07242838 .29296876 .13134766 C .24121094 .19059246 .21191406 .22281902 .20507813 .22802735 C .20279949 .22998047 .19921875 .2311198 .19433594 .23144531 L .19433594 .18359375 C .19433594 .15983074 .1953125 .12776692 .19726563 .087402347 C .19824219 .06917318 .19954427 .05810547 .20117188 .05419922 C .20214844 .05159505 .2039388 .049479169 .20654297 .047851564 C .2101237 .045247396 .2163086 .04329427 .22509766 .041992189 C .2290039 .041341146 .24430339 .040364583 .2709961 .0390625 L .2709961 0 C .23128255 .0022786458 .18782552 .0034179688 .140625 .0034179688 C .09016927 .0034179688 .04329427 .0022786458 0 0 L 0 .0390625 C .028645834 .040364583 .045410158 .041503908 .05029297 .04248047 C .0555013 .04378255 .05940755 .045572919 .06201172 .047851564 C .06461588 .05045573 .06640625 .053710939 .06738281 .057617189 C .06998698 .06738281 .071614589 .09391276 .072265628 .13720703 C .07356771 .1961263 .07421875 .24690755 .07421875 .28955079 L .07421875 .4477539 C .07421875 .5001628 .072916667 .5476888 .0703125 .59033206 C .06933594 .6121419 .067871097 .625 .06591797 .62890627 C .06461588 .6311849 .06282552 .6329753 .060546876 .63427737 C .056640626 .63655599 .05061849 .6383464 .04248047 .63964846 C .036946615 .640625 .022786459 .64160159 0 .6425781 L 0 .67871096 C .045898439 .6842448 .07910156 .68929037 .099609378 .69384768 C .12044271 .69840499 .15022786 .70686849 .18896485 .7192383 L .19970703 .7133789 L .19628906 .6074219 C .19498699 .5488281 .19433594 .48990885 .19433594 .43066407 L .19433594 .2529297 C .20475261 .2607422 .21679688 .27083335 .23046875 .28320313 C .2591146 .30924479 .2828776 .33138023 .3017578 .34960938 C .30859376 .35677085 .32063804 .3688151 .33789063 .3857422 C .35514323 .40266929 .3696289 .41796876 .38134767 .43164063 L .38134767 .45898438 C .41064454 .45833335 .44026695 .45817057 .47021485 .4584961 C .4832357 .4584961 .5050456 .45865885 .53564456 .45898438 L .53564456 .42089845 L .484375 .41748048 C .47884117 .41682945 .47347007 .4152018 .46826173 .41259767 C .4584961 .40771485 .44335938 .3971354 .42285157 .38085938 C .39420573 .3580729 .37695313 .34391276 .37109376 .3383789 C .36523438 .33284507 .3606771 .32861329 .35742188 .3256836 L .31591798 .28955079 C .3445638 .25569663 .3930664 .20003255 .46142579 .122558597 C .49983726 .07861328 .5250651 .053222658 .5371094 .04638672 C .5439453 .04248047 .5538737 .040039064 .56689456 .0390625 Z "/>
</symbol>
<symbol id="font_0_10">
<path d="M .0546875 .21386719 C .052083333 .22721355 .049316408 .24723308 .04638672 .27392579 C .041178388 .32535807 .035807294 .36930339 .030273438 .40576173 C .016601563 .4975586 .009114583 .54996749 .0078125 .5629883 C .00390625 .59716799 .001953125 .62027999 .001953125 .6323242 C .001953125 .63688156 .0022786458 .6435547 .0029296876 .65234377 C .0120442709 .65755209 .020996094 .6621094 .029785157 .6660156 L .103027347 .69677737 L .15332031 .69628909 C .15364583 .68652346 .1538086 .6791992 .1538086 .6743164 C .1538086 .65283206 .15022786 .6170247 .1430664 .56689456 L .12060547 .4038086 L .096191409 .23046875 L .05908203 .20996094 L .0546875 .21386719 M .076171878 .15234375 C .09700521 .15234375 .114746097 .14485677 .12939453 .12988281 C .14436849 .115234378 .15185547 .09733073 .15185547 .076171878 C .15185547 .055338544 .14436849 .037434896 .12939453 .022460938 C .114746097 .007486979 .09700521 0 .076171878 0 C .05501302 0 .036946615 .007486979 .021972657 .022460938 C .0073242189 .037434896 0 .055338544 0 .076171878 C 0 .09733073 .0073242189 .115234378 .021972657 .12988281 C .036946615 .14485677 .05501302 .15234375 .076171878 .15234375 Z "/>
</symbol>
<use xlink:href="#font_0_19" transform="matrix(25,0,0,-25,100.8667,120.56885)" fill="#0000ff"/>
<use xlink:href="#font_0_4" transform="matrix(25,0,0,-25,121.96025,120.99609)" fill="#0000ff"/>
<use xlink:href="#font_0_1a" transform="matrix(25,0,0,-25,134.08184,120.56885)" fill="#0000ff"/>
<use xlink:href="#font_0_4" transform="matrix(25,0,0,-25,144.18526,120.99609)" fill="#0000ff"/>
<use xlink:href="#font_0_5" transform="matrix(25,0,0,-25,155.55,120.56885)" fill="#0000ff"/>
<use xlink:href="#font_0_9" transform="matrix(25,0,0,-25,162.64229,120.56885)" fill="#0000ff"/>
<use xlink:href="#font_0_17" transform="matrix(25,0,0,-25,171.23584,120.99609)" fill="#0000ff"/>
<use xlink:href="#font_0_5" transform="matrix(25,0,0,-25,181.225,120.56885)" fill="#0000ff"/>
<use xlink:href="#font_0_b" transform="matrix(25,0,0,-25,188.45157,120.88623)" fill="#0000ff"/>
<use xlink:href="#font_0_5" transform="matrix(25,0,0,-25,199.975,120.56885)" fill="#0000ff"/>
<use xlink:href="#font_0_22" transform="matrix(25,0,0,-25,206.8964,120.56885)" fill="#0000ff"/>
<use xlink:href="#font_0_9" transform="matrix(25,0,0,-25,215.39229,120.56885)" fill="#0000ff"/>
<use xlink:href="#font_0_c" transform="matrix(25,0,0,-25,223.59522,120.56885)" fill="#0000ff"/>
<use xlink:href="#font_0_23" transform="matrix(25,0,0,-25,238.99228,120.56885)" fill="#0000ff"/>
<use xlink:href="#font_0_10" transform="matrix(25,0,0,-25,255.06073,120.84961)" fill="#0000ff"/>
<path d="M 100 158 C 100 155.05448 102.38782 152.66667 105.333339 152.66667 C 108.278858 152.66667 110.666667 155.05448 110.666667 158 C 110.666667 160.94553 108.278858 163.33333 105.333339 163.33333 C 102.38782 163.33333 100 160.94553 100 158 Z "/>
<symbol id="font_1_1">
<path d="M .52044197 .32486186 C .5226519 .33959485 .5244935 .3543278 .5259668 .36906076 C .5281768 .3845304 .52928176 .39999999 .52928176 .4154696 C .52928176 .43462245 .52744016 .4541436 .5237569 .47403313 C .52007368 .49392263 .5134438 .5123388 .5038674 .52928176 C .4869245 .5609576 .46224679 .585267 .42983426 .6022099 C .39742173 .61915287 .36353589 .6276243 .3281768 .6276243 C .28618787 .6276243 .24861878 .6154696 .21546959 .5911602 C .19484346 .57569059 .17642725 .55690607 .16022098 .5348066 C .14475137 .5127072 .1314917 .4891344 .12044197 .46408839 C .1101289 .43904234 .10202577 .41325967 .09613259 .38674034 C .09097606 .36095763 .08839778 .3362799 .088397789 .31270717 C .08839778 .28324125 .09208103 .25488029 .0994475 .2276243 C .10755064 .20110496 .11970534 .17753221 .1359116 .15690607 C .1528545 .13701658 .17384899 .12081031 .198895 .10828729 C .22394105 .09576427 .25340698 .08950276 .2872928 .08950276 C .3012891 .08950276 .31528545 .09134438 .32928179 .09502762 C .34401474 .098710868 .35727439 .103867407 .36906076 .110497239 C .39042355 .12228361 .4092081 .13664826 .42541436 .15359116 C .44235728 .17053406 .45709024 .18895026 .46961326 .20883978 C .48213626 .2287293 .49281765 .24972375 .5016574 .2718232 C .5104973 .2946593 .51786378 .31712709 .5237569 .3392265 L .52044197 .32486186 M .60883978 .31381215 C .6022099 .28802947 .5926335 .26077346 .5801105 .23204419 C .5683241 .2033149 .5539594 .17605894 .5370166 .15027625 C .5208103 .12449355 .5016574 .100920807 .479558 .07955801 C .4581952 .058195216 .43462245 .04198895 .40883977 .030939226 C .3970534 .026519338 .38674034 .022836097 .37790055 .019889504 C .36906076 .016206263 .360221 .013259669 .3513812 .011049725 C .34254144 .0088397799 .332965 .006998159 .32265193 .0055248627 C .3130755 .0033149187 .3020258 .001841622 .28950278 .0011049733 C .28802947 .0011049733 .28618787 .0011049733 .2839779 .0011049733 C .28176797 .00036832444 .27955804 0 .27734808 0 C .2581952 0 .23867403 .0033149173 .21878453 .009944752 C .19889502 .015837938 .18011047 .021731124 .16243093 .027624309 C .13222836 .03867403 .10681399 .054511969 .08618784 .07513812 C .06556169 .09576427 .04861878 .11896869 .03535911 .14475137 C .02283609 .17127072 .013627988 .19926334 .0077348055 .22872928 C .0025782686 .2581952 0 .28766115 0 .31712706 C 0 .32817678 .00036832319 .33885817 .0011049695 .34917126 C .0018416183 .360221 .0029465918 .3709024 .0044198895 .38121546 C .0081031289 .40478818 .014364638 .43020258 .02320442 .45745857 C .032780846 .4847145 .044567218 .51123389 .058563536 .5370166 C .07255984 .5635359 .08839778 .58784529 .10607734 .6099447 C .12449355 .63204416 .14401473 .6497237 .16464088 .6629834 C .19042357 .67992636 .21804787 .69244936 .24751379 .70055249 C .2769797 .70939227 .306814 .7138121 .33701659 .7138121 C .38710866 .7138121 .43425415 .7020257 .47845305 .678453 C .5226519 .6548803 .5576427 .6187845 .5834254 .5701657 C .5959484 .54659298 .60478827 .5215469 .60994479 .4950276 C .6151013 .46924494 .61767956 .4430939 .61767956 .41657458 C .61767956 .39963166 .6169429 .3823204 .6154696 .36464087 C .6139963 .34769798 .61178639 .33075506 .60883978 .31381215 Z "/>
</symbol>
<symbol id="font_1_2">
<path d="M .39116023 .050828726 C .39042358 .033885819 .38526703 .021362797 .3756906 .013259668 C .36685083 .0044198895 .35690607 0 .34585635 0 C .33554328 0 .32596684 .004051565 .31712706 .012154696 C .3082873 .019521179 .30276243 .03130755 .3005525 .04751381 C .3005525 .08139963 .30018417 .11491712 .2994475 .1480663 C .2994475 .18195212 .2994475 .21583794 .2994475 .24972375 C .2994475 .27403314 .2994475 .29834254 .2994475 .32265193 C .30018417 .34696136 .29871086 .37127076 .2950276 .3955801 C .2891344 .4066298 .2825046 .41325967 .2751381 .4154696 C .2685083 .41841618 .26040516 .41988955 .2508287 .4198895 C .22578268 .41988955 .20110496 .41362799 .17679557 .40110494 C .15248619 .3893186 .13333334 .372744 .11933702 .35138119 C .11123389 .33885817 .10460406 .32817678 .09944752 .319337 C .095027629 .31123389 .09208103 .29907919 .09060773 .28287293 C .09060773 .24530387 .09060773 .20773481 .09060773 .17016573 C .09060773 .13259667 .09097606 .09502762 .09171271 .05745856 C .09097606 .04051565 .08581952 .027624309 .07624309 .01878453 C .06740331 .010681399 .05745856 .006629834 .04640884 .006629834 C .036095766 .006629834 .026519338 .010313075 .017679558 .017679558 C .008839781 .025782688 .0033149198 .037937385 .0011049733 .054143646 C .0011049733 .08950276 .0011049733 .12375691 .0011049733 .15690607 C .0011049733 .19005525 .00073664888 .22283609 0 .2552486 C 0 .28766115 0 .320442 0 .35359115 C 0 .387477 0 .42209945 0 .45745857 C .003683244 .47219149 .00957643 .48324124 .017679558 .49060775 C .02578269 .4979742 .03499079 .5016574 .045303868 .5016574 C .054880296 .5016574 .06372008 .4983425 .07182321 .4917127 C .08066299 .48508287 .08692449 .4747698 .09060773 .46077348 L .09060773 .45193369 C .11197054 .47034989 .1359116 .4847145 .16243094 .4950276 C .18968691 .5060773 .2169429 .51160219 .24419889 .51160219 C .2714549 .51160219 .29686926 .50534066 .320442 .49281765 C .34475137 .48029462 .36427257 .46003685 .37900553 .4320442 C .38416208 .4224678 .38747696 .41031305 .38895027 .3955801 C .39116023 .38158379 .39226518 .3664825 .39226518 .35027624 C .39300183 .3348066 .39300183 .31860034 .39226518 .30165745 C .39152853 .28545118 .39116023 .26998157 .39116023 .2552486 L .39116023 .12486187 L .39116023 .050828726 Z "/>
</symbol>
<symbol id="font_1_3">
<path d="M .38637198 .14806628 C .4018416 .15395947 .4151013 .15469612 .42615099 .15027623 C .4372007 .14585634 .44493554 .13885819 .4493554 .12928176 C .4545119 .11970534 .4552486 .109023939 .45156536 .097237568 C .44861878 .08545119 .4401473 .07550644 .42615099 .06740331 C .4018416 .053406996 .37569059 .04051565 .34769795 .028729279 C .31970535 .016942909 .29134438 .008839778 .26261509 .0044198886 C .23388581 -.00000000031044088 .20552485 .0003683238 .17753221 .0055248609 C .14953959 .00994475 .12265193 .020994476 .09686923 .03867403 C .06593001 .060036828 .04235727 .088766109 .026151013 .12486187 C .009944751 .16169428 .0014732952 .19963165 .00073664638 .23867402 C -.000000002483527 .27845303 .0069981554 .3163904 .02173112 .35248617 C .037200735 .3893186 .0611418 .4187845 .09355432 .44088397 C .12744014 .46372006 .16427255 .48066298 .20405156 .4917127 C .24383056 .5034991 .2839779 .5049724 .32449354 .49613256 C .34438304 .49171267 .36243094 .48213626 .37863717 .4674033 C .39484344 .45340697 .40773479 .4368324 .41731123 .41767953 C .42762432 .39926336 .43314914 .37937383 .43388579 .35801105 C .43462245 .3373849 .4294659 .3178637 .41841618 .2994475 C .40589319 .27882136 .38784529 .2611418 .36427254 .24640882 C .3406998 .2324125 .31491713 .22025782 .28692449 .20994474 C .2596685 .2003683 .23204418 .19226517 .20405156 .18563535 C .17679556 .1790055 .1528545 .17274399 .13222835 .16685082 C .123388569 .16464086 .11491712 .16427255 .10681398 .16574584 C .117863718 .1421731 .13406997 .12265193 .15543276 .10718232 C .17753221 .092449348 .20478821 .08618784 .2372007 .088397789 C .2629834 .089871089 .28876613 .09686924 .3145488 .10939226 C .34106813 .12265193 .3650092 .13554327 .38637198 .14806628 M .17090239 .38342539 C .1436464 .36942909 .123388569 .3495396 .11012891 .32375688 C .09686924 .29871086 .090239409 .2721915 .090239409 .24419888 C .095395948 .24788212 .1009208 .2508287 .10681398 .25303868 C .120073657 .25672189 .13333333 .26040516 .14659299 .2640884 C .1605893 .2685083 .17458563 .27255986 .18858195 .27624307 C .19742172 .27845303 .20920809 .28176794 .22394106 .28618784 C .23941069 .29060773 .2552486 .29576425 .27145488 .30165745 C .28766115 .30755065 .3023941 .31418047 .31565375 .32154695 C .32891343 .32965008 .3377532 .33848987 .3421731 .34806628 C .34364639 .37237565 .3377532 .38895027 .32449354 .39779005 C .31123386 .4066298 .29539595 .4110497 .2769797 .4110497 C .25856353 .4110497 .23941066 .40773479 .21952117 .40110497 C .19963165 .3952118 .18342541 .3893186 .17090239 .38342539 Z "/>
</symbol>
<use xlink:href="#font_1_1" transform="matrix(16,0,0,-16,127.46224,166.12375)"/>
<use xlink:href="#font_1_2" transform="matrix(16,0,0,-16,139.34345,165.96463)"/>
<use xlink:href="#font_1_3" transform="matrix(16,0,0,-16,147.4563,165.98232)"/>
<path d="M 100 178.41989 C 100 175.47437 102.38782 173.08657 105.333339 173.08657 C 108.278858 173.08657 110.666667 175.47437 110.666667 178.41989 C 110.666667 181.3654 108.278858 183.75322 105.333339 183.75322 C 102.38782 183.75322 100 181.3654 100 178.41989 Z "/>
<symbol id="font_1_4">
<path d="M .4902394 .68176797 C .50349906 .67734798 .51344379 .6707182 .5200736 .6618784 C .5267034 .6530387 .52965006 .64383056 .5289134 .6342541 C .5281767 .623941 .52412518 .6147329 .5167587 .6066298 C .5093922 .59926339 .4983425 .5941068 .4836096 .5911602 L .31123389 .5900552 L .31233887 .050828726 C .3116022 .033885819 .3064457 .021362797 .29686926 .013259668 C .28802947 .0044198895 .27808474 0 .26703499 0 C .25672189 0 .24714548 .004051565 .23830569 .012154696 C .22946592 .019521179 .22394108 .03130755 .22173111 .04751381 L .22062615 .5900552 L .046040514 .5900552 C .0305709 .5930018 .018784525 .598895 .010681396 .60773476 C .0033149154 .6173112 -.0000000012417635 .6272559 .00073664638 .637569 C .001473294 .64861878 .0058931827 .65856358 .013996312 .6674033 C .022836095 .67624309 .035727439 .68066295 .052670346 .68066295 C .06151012 .68066295 .076979737 .68066295 .099079187 .68066295 C .12191528 .68066295 .1480663 .68066295 .17753223 .68066295 C .20699816 .68066295 .23830569 .68066295 .27145488 .68066295 C .30460403 .68066295 .3359116 .68066295 .36537753 .68066295 C .39484347 .68066295 .42062614 .68066295 .44272558 .68066295 C .46556167 .6813996 .48139964 .68176797 .4902394 .68176797 Z "/>
</symbol>
<symbol id="font_1_5">
<path d="M .58232048 .47403313 C .58968695 .48655615 .59815838 .49465928 .6077348 .4983425 C .6180479 .5027624 .6276243 .50349906 .63646408 .5005525 C .6460405 .4983425 .6537753 .4924493 .6596685 .4828729 C .66629835 .47403313 .66924497 .4626151 .6685083 .44861878 C .64714547 .3771639 .625046 .30534069 .6022099 .23314916 C .5801105 .16169429 .5528545 .09208103 .520442 .02430939 C .50939229 .011049722 .49723757 .0040515644 .48397789 .003314916 C .47071819 .0025782679 .45782686 .008471454 .44530384 .020994474 C .4246777 .062246775 .40552483 .10386739 .38784529 .14585634 C .37016575 .18784529 .3528545 .23020256 .33591158 .27292816 C .332965 .27882136 .33001838 .28471456 .3270718 .29060773 C .32486186 .29723756 .3226519 .30386738 .32044197 .31049723 C .31086556 .28692449 .30165745 .26372008 .29281766 .24088396 C .28397788 .21878451 .2751381 .19594842 .26629833 .17237568 C .25745855 .14953958 .24825044 .12596683 .23867403 .10165746 C .22909759 .07734806 .21878451 .051197053 .2077348 .023204418 C .19447513 .006998157 .17974217 -.0000000009313226 .16353591 .0022099438 C .14732965 .0044198886 .13480662 .014732963 .12596685 .033149169 C .109023939 .07366482 .09392265 .114180479 .08066298 .15469612 C .06813996 .19594842 .055616935 .23756905 .043093917 .279558 C .034254139 .30755065 .02615101 .33517496 .018784527 .36243094 C .012154695 .39042355 .0066298337 .41841618 .0022099429 .4464088 C -.0000000012417635 .4626151 .0025782672 .47550643 .009944748 .48508284 C .017311233 .49539594 .02615101 .5016574 .036464085 .5038674 C .046777164 .50607737 .05709024 .5038674 .06740332 .49723754 C .078453037 .49134434 .08618784 .48066295 .09060773 .46519334 C .098710868 .4158379 .10939226 .3664825 .122651938 .31712706 C .13664826 .26777164 .15211787 .21878451 .16906077 .17016573 C .17863719 .19447512 .18747698 .21731122 .19558011 .23867402 C .2044199 .26003684 .21289134 .2813996 .22099446 .30276243 C .22983425 .3241252 .23904234 .3469613 .24861877 .3712707 C .25893186 .39558009 .26998154 .42283608 .28176794 .45303867 C .2876611 .46335174 .2946593 .47071824 .30276243 .4751381 C .3116022 .479558 .32007364 .48103128 .32817678 .479558 C .33701656 .47882138 .34511969 .4751381 .35248617 .46850828 C .35985265 .4626151 .36537753 .4537753 .36906076 .44198893 C .37569059 .41841618 .38342539 .3952118 .39226518 .37237568 C .4018416 .35027624 .4110497 .32817678 .41988949 .30607734 C .4294659 .28103129 .43904234 .25598524 .44861875 .23093921 C .4589318 .20662983 .46924488 .18232043 .47955797 .15801104 C .5001841 .20957642 .51823207 .26187847 .53370168 .31491713 C .5499079 .36795578 .5661142 .42099444 .58232048 .47403313 Z "/>
</symbol>
<symbol id="font_1_6">
<path d="M .0117863719 .30755065 C .019889502 .33112339 .029834254 .35395948 .041620628 .37605895 C .053407 .39889504 .06740332 .41952119 .08360957 .43793739 C .09981584 .45635358 .11823205 .47219155 .1388582 .4854512 C .16022098 .49871088 .18379373 .50828728 .20957643 .5141804 C .25230203 .52375689 .28950275 .52044197 .32117862 .5042357 C .3535911 .48802946 .37937383 .46482504 .39852668 .43462248 C .41767956 .4044199 .43020258 .36979739 .43609575 .33075506 C .44272558 .29244937 .44125227 .25561694 .43167586 .22025782 C .42062614 .17679556 .40110494 .13627993 .37311233 .098710868 C .34511969 .061141805 .30976058 .033885819 .26703499 .016942909 C .23535912 .0044198899 .20478821 .0000000012417635 .17532227 .003683243 C .14659299 .0066298346 .12044197 .015837936 .09686924 .03130755 C .07403314 .04677716 .054511966 .06703499 .038305709 .092081028 C .022099449 .11712706 .011049725 .14548803 .0051565396 .1771639 C .0014732977 .19705339 0 .21657457 .00073664638 .23572743 C .002209944 .25488029 .004788214 .27403317 .008471455 .293186 L .0117863719 .30755065 M .09797422 .28213627 C .095027629 .26666666 .09281767 .25230203 .09134438 .23904234 C .09060773 .22651933 .09134438 .21215469 .093554329 .19594842 C .09576427 .17605894 .10202578 .15801104 .11233885 .14180479 C .12265191 .12633518 .13517495 .114180479 .14990792 .10534069 C .16464088 .097237568 .18084713 .093186 .19852668 .093186 C .21694289 .093922648 .23535909 .09981584 .2537753 .11086556 C .2780847 .12559852 .29723756 .14475137 .31123389 .16832412 C .32596684 .19189686 .33701656 .21731122 .34438304 .2445672 C .35027624 .26666666 .35138119 .2902394 .34769795 .31528545 C .34475137 .34033147 .33738486 .36243094 .3255985 .38158379 C .31381215 .40073667 .2979742 .41436468 .2780847 .42246778 C .2581952 .43130756 .23462247 .43020258 .20736647 .41915287 C .17790054 .4066298 .15469612 .38784529 .13775322 .36279927 C .12081031 .3377532 .10755064 .31086556 .09797422 .28213627 Z "/>
</symbol>
<use xlink:href="#font_1_4" transform="matrix(16,0,0,-16,126.97311,186.45528)"/>
<use xlink:href="#font_1_5" transform="matrix(16,0,0,-16,135.25795,186.27848)"/>
<use xlink:href="#font_1_6" transform="matrix(16,0,0,-16,146.7308,186.69101)"/>
<path d="M 100 198.83979 C 100 195.89426 102.38782 193.50644 105.333339 193.50644 C 108.278858 193.50644 110.666667 195.89426 110.666667 198.83979 C 110.666667 201.7853 108.278858 204.17311 105.333339 204.17311 C 102.38782 204.17311 100 201.7853 100 198.83979 Z "/>
<symbol id="font_1_7">
<path d="M .09060773 .05488029 C .08987108 .03867403 .085082869 .026519336 .07624309 .018416206 C .06740331 .009576427 .05745856 .0051565377 .04640884 .0051565377 C .03609576 .0044198899 .026151009 .008103131 .016574584 .01620626 C .0077348079 .023572743 .0022099466 .035359116 0 .051565377 L 0 .66593 C .0029465955 .67992636 .008471456 .6906077 .016574584 .69797417 C .025414365 .7053406 .034254146 .7090239 .04309392 .7090239 C .05267035 .7097605 .061878455 .706814 .07071823 .7001841 C .07955801 .6935542 .08618784 .6832412 .09060773 .6692449 L .09060773 .40957643 C .10165745 .42062617 .11197052 .42946593 .121546957 .43609575 C .13627993 .44640885 .1499079 .45451198 .16243093 .46040515 C .1756906 .46703498 .19079189 .47219155 .2077348 .47587476 C .22099447 .479558 .23425412 .48029468 .2475138 .4780847 C .26151014 .47587476 .2751381 .47292818 .2883978 .46924494 C .31049723 .4626151 .32928176 .4519337 .34475137 .43720073 C .36095763 .4224678 .37421728 .40515653 .38453038 .38526703 C .39558009 .36611415 .40368323 .34548799 .40883977 .32338859 C .4139963 .3012891 .41694293 .27992634 .41767956 .25930018 C .41841618 .22394108 .41841618 .18895029 .41767956 .15432781 C .41767956 .120441999 .41804789 .08581952 .4187845 .050460403 C .41804789 .034254146 .41325967 .022099449 .40441988 .013996316 C .39558009 .0051565377 .38563536 .0007366482 .37458564 .0007366482 C .36427257 .00000000062088176 .3543278 .0036832418 .34475137 .0117863719 C .3359116 .019152854 .33038674 .030939227 .32817678 .047145487 C .32817678 .0825046 .32817678 .11712707 .32817678 .1510129 C .32817678 .18563535 .32780848 .22062613 .32707183 .25598527 C .32633517 .2825046 .32117865 .3064457 .3116022 .32780848 C .30276243 .34917129 .28692449 .36721913 .2640884 .3819521 C .24493553 .38710866 .2276243 .38710866 .21215469 .3819521 C .19668508 .37679557 .18232043 .36869244 .16906077 .3576427 C .15653776 .34732963 .14475139 .33517496 .13370165 .32117865 C .12265193 .3071823 .11197052 .29355435 .10165745 .28029467 C .10018415 .27808474 .09834254 .27587477 .09613259 .27366484 C .09392265 .27219153 .09208103 .27071823 .09060773 .2692449 L .09060773 .05488029 Z "/>
</symbol>
<symbol id="font_1_8">
<path d="M .032044203 .40441988 C .020994476 .41031305 .012891344 .41731123 .007734809 .42541436 C .0025782698 .4335175 0 .44162063 0 .44972376 C 0 .46077348 .004051566 .47034989 .012154698 .478453 C .02025783 .4872928 .031307553 .4917127 .045303868 .4917127 C .05561694 .4917127 .06850828 .48802946 .08397789 .48066298 C .09944751 .4732965 .11160221 .46519337 .12044199 .45635358 C .14327808 .47550643 .16685082 .49134437 .19116022 .5038674 C .2154696 .5163904 .24014731 .5226519 .26519338 .5226519 C .27255986 .5226519 .28324125 .5208103 .29723756 .51712706 C .31123389 .51344379 .32486186 .5079189 .33812154 .5005525 C .35211788 .493186 .36427257 .48360957 .37458564 .4718232 C .3848987 .46003679 .39005528 .44640885 .39005525 .4309392 C .39005528 .41841618 .38600365 .4081031 .37790055 .39999999 C .36979739 .39263354 .35985265 .38895027 .34806628 .38895027 C .33996318 .38895027 .3325967 .39116023 .32596684 .39558009 C .32007364 .4007366 .31381215 .40589319 .3071823 .4110497 C .3012891 .41694287 .2946593 .42209945 .2872928 .4265193 C .28066299 .4309392 .27292816 .4331492 .2640884 .43314917 C .25377534 .4331492 .24235727 .42983426 .22983426 .4232044 C .21804787 .41731123 .20589318 .40994475 .19337017 .40110497 C .1815838 .39226518 .17016573 .38268877 .15911602 .37237568 C .1480663 .3620626 .13848987 .3528545 .13038674 .34475137 L .13038674 .050828726 C .12965009 .033885819 .12449355 .021362797 .11491713 .013259668 C .10607734 .0044198895 .0961326 0 .08508287 0 C .074769798 0 .06519336 .004051565 .05635359 .012154696 C .047513814 .019521179 .04198895 .031307553 .039779009 .047513814 L .039779009 .34917126 C .039779009 .35064457 .039410686 .35211788 .038674036 .35359115 C .038674036 .3558011 .038674036 .35764275 .038674036 .35911603 C .038674036 .3605893 .038674036 .3620626 .038674036 .3635359 C .039410686 .36574588 .039779009 .36758749 .039779009 .36906076 L .039779009 .40110497 C .03683241 .40257824 .034254146 .40368323 .032044203 .40441988 Z "/>
</symbol>
<use xlink:href="#font_1_4" transform="matrix(16,0,0,-16,126.97311,206.87514)"/>
<use xlink:href="#font_1_7" transform="matrix(16,0,0,-16,136.91983,206.85157)"/>
<use xlink:href="#font_1_8" transform="matrix(16,0,0,-16,145.3056,206.83979)"/>
<use xlink:href="#font_1_3" transform="matrix(16,0,0,-16,151.91286,206.8221)"/>
<use xlink:href="#font_1_3" transform="matrix(16,0,0,-16,160.32886,206.8221)"/>
</g>
</svg>
